<?xml version="1.0" encoding="UTF-8"?>
<svg id="Layer_9" data-name="Layer 9" xmlns="http://www.w3.org/2000/svg" viewBox="0 0 360 360">
  <defs>
    <style>
      .cls-1 {
        fill: #d6d6d6;
      }
    </style>
  </defs>
  <path class="cls-1" d="m332.03,135.96h-38.72l-61.89-86.25c-6.12-8.53-18-10.49-26.53-4.36-5.17,3.71-7.93,9.54-7.93,15.45,0,3.84,1.16,7.71,3.57,11.07l45.99,64.09H110.96l46-64.09c2.41-3.35,3.56-7.22,3.56-11.06,0-5.91-2.75-11.75-7.93-15.46-8.53-6.13-20.4-4.17-26.52,4.36l-61.9,86.25H27.97c-9.18,0-16.63,7.45-16.63,16.63v4.58c0,9.19,7.45,16.63,16.63,16.63h1.49l16.62,109.33s7.68,19.08,19.08,19.08h227.96c11.4,0,19.08-19.08,19.08-19.08l16.63-109.33h3.2c9.18,0,16.63-7.44,16.63-16.63v-4.58c0-9.18-7.45-16.63-16.63-16.63Zm-202.81,114.94c0,8.12-6.58,14.69-14.69,14.69s-14.69-6.58-14.69-14.69v-63.34c0-8.12,6.58-14.69,14.69-14.69s14.69,6.58,14.69,14.69v63.34Zm64.76,0c0,8.12-6.58,14.69-14.69,14.69h0c-8.12,0-14.69-6.58-14.69-14.69v-63.34c0-8.12,6.58-14.69,14.69-14.69h0c8.12,0,14.69,6.58,14.69,14.69v63.34Zm63.88.12c0,8.12-6.58,14.69-14.69,14.69s-14.69-6.58-14.69-14.69v-63.34c0-8.12,6.58-14.69,14.69-14.69s14.69,6.58,14.69,14.69v63.34Z"/>
</svg>