<?xml version="1.0" encoding="UTF-8"?>
<svg id="PDXGRANTC" xmlns="http://www.w3.org/2000/svg" viewBox="0 0 360 360">
  <defs>
    <style>
      .cls-1 {
        fill: #171823;
      }

      .cls-2 {
        fill: #d6d6d6;
      }
    </style>
  </defs>
  <g id="Layer_1" data-name="Layer 1">
    <rect class="cls-1" width="360" height="360" rx="86.33" ry="86.33"/>
  </g>
  <g id="Layer_2" data-name="Layer 2">
    <g>
      <path class="cls-2" d="m188.05,180.3c-9.46,0-18.39-.3-27.29.1-6.86.31-12.09,4.18-16.3,9.45-9.54,11.96-21.54,20.07-36.93,21.83-8.03.92-16.23.46-24.35.6-2.54.04-5.09,0-7.94,0v48.33h-32.22V99.31c.69-.05,1.38-.15,2.07-.15,18.52,0,37.04-.1,55.56.03,26.05.18,49.52,20.06,54.28,46.08-11.98,1.93-22.55,6.98-31.41,15.3-.33-3.78-.21-7.41-1.04-10.8-2.6-10.71-11.85-17.91-22.86-18.03-7.82-.09-15.64.02-23.46.05-.18,0-.36.15-.72.31v47.26c9.79,0,19.45.46,29.03-.17,5.8-.38,10.33-4.23,13.96-8.83,9.56-12.09,21.63-20.28,37.13-22.06,8.03-.93,16.23-.46,24.35-.6,2.55-.04,5.09,0,7.9,0v-48.31h32.66c0,1.06,0,2.14,0,3.22,0,30.35.05,60.71-.08,91.06-.01,2.42-.79,5.05-1.94,7.2-4.02,7.51-8.44,14.8-12.51,22.29-1.06,1.94-2.26,2.54-4.35,2.47-4.41-.14-8.82-.04-13.54-.04v-45.29Z"/>
      <path class="cls-2" d="m108.21,214.65c12.21-1.87,22.66-7.18,31.96-15.74-2.61,16.65,8.74,27.13,18.72,28.92,1.91.34,3.88.43,5.83.43,12.86.03,25.72-.03,38.59.05,2.06.01,3.29-.49,4.37-2.42,8.22-14.7,16.61-29.3,24.83-44,.56-1,.2-2.56.13-3.85-.02-.46-.41-.94-.72-1.34-7.64-9.94-9.64-21.13-8.92-33.52.79-13.64.16-27.36.21-41.05,0-.98.56-1.96.85-2.94.76.71,1.76,1.28,2.26,2.15,8.64,15.04,17.23,30.12,26.07,45.62.79-1.25,1.45-2.2,2.02-3.21,8.04-14.09,16.05-28.2,24.17-42.25.6-1.04,2.02-2.26,3.07-2.27,11.62-.16,23.25-.1,35.33-.1-.51,1.04-.86,1.84-1.28,2.58-14.39,25.25-28.77,50.5-43.24,75.71-1.05,1.83-1,3.18.03,4.97,14.39,25.13,28.71,50.3,43.04,75.47.45.79.86,1.6,1.45,2.71-1,.1-1.75.23-2.49.23-10.7.01-21.4-.04-32.1.05-1.91.02-2.92-.63-3.84-2.27-8.07-14.31-16.23-28.57-24.37-42.84-.49-.87-1.06-1.7-1.76-2.82-5.32,9.32-10.46,18.32-15.6,27.32-3.51,6.16-7.06,12.29-10.48,18.49-.85,1.54-1.83,2.11-3.61,2.11-20.37-.07-40.75.1-61.12-.08-25.12-.22-49.84-21.52-53.38-46.15Z"/>
    </g>
  </g>
</svg>