<?xml version="1.0" encoding="UTF-8"?>
<svg id="Edit_Button" data-name="Edit Button" xmlns="http://www.w3.org/2000/svg" viewBox="0 0 360 360">
  <defs>
    <style>
      .cls-1 {
        fill: #d6d6d6;
      }
    </style>
  </defs>
  <path class="cls-1" d="m266.77,143.42s-.1.1-.16.15h0s-129.28,129.29-129.28,129.29c-6.99,6.99-17,8.52-17,8.52l-4.3.68-41.06,6.55c-.94.15-1.91-.27-2.61-.97s-1.12-1.66-.97-2.6l6.55-41.06.68-4.31s1.54-10.01,8.52-16.99L216.43,93.39h0s.1-.1.15-.15l1.9-1.9c2.37-2.37,6.51-2.08,9.25.65l40.28,40.28c2.73,2.73,3.02,6.88.65,9.25l-1.9,1.9Z"/>
  <rect class="cls-1" x="224.9" y="91.06" width="70.97" height="17.1" rx="7" ry="7" transform="translate(146.7 -154.95) rotate(45)"/>
</svg>