<?xml version="1.0" encoding="UTF-8"?>
<svg id="Trash_Can" data-name="Trash Can" xmlns="http://www.w3.org/2000/svg" viewBox="0 0 360 360">
  <defs>
    <style>
      .cls-1 {
        fill: #d6d6d6;
      }
    </style>
  </defs>
  <path class="cls-1" d="m279.4,88.24c-.12-3.97-1.69-7.55-4.18-10.18-2.58-2.74-6.15-4.43-10.11-4.43h-32.36v-7.91c0-13.25-10.15-23.99-22.68-23.99h-60.15c-12.53,0-22.68,10.74-22.68,23.99v7.91h-32.34c-7.73,0-14.03,6.5-14.29,14.61h0v7.91c0,.06,0,.13,0,.19,0,2.08.8,3.97,2.09,5.34,1.3,1.36,3.08,2.21,5.05,2.21h184.53c3.94,0,7.15-3.38,7.15-7.55v-7.58c0-.17,0-.35,0-.52Zm-137.78-14.61v-7c0-4.98,3.81-9.01,8.51-9.01h59.73c2.35,0,4.47,1.01,6.01,2.64s2.5,3.88,2.5,6.37v7h-76.75Zm137.17,15.13c0-.17,0-.35,0-.52h0v.52Z"/>
  <path class="cls-1" d="m180.01,84.24v.52c0-.17,0-.35-.01-.52h.01Z"/>
  <path class="cls-1" d="m180.01,84.24v.52c0-.17,0-.35-.01-.52h.01Z"/>
  <path class="cls-1" d="m271.94,113.57c-1.07-1.07-2.54-1.73-4.17-1.73H92.23c-1.63,0-3.1.66-4.17,1.73-1.07,1.07-1.73,2.54-1.73,4.17l12.73,181.43c0,12.82,10.39,23.21,23.21,23.21h115.46c12.82,0,23.21-10.39,23.21-23.21l12.73-181.43c0-1.63-.66-3.1-1.73-4.17Zm-137.11,178.98c-3.58.11-6.56-2.71-6.67-6.28l-4.4-146.87c-.11-3.58,2.71-6.56,6.28-6.67,3.58-.11,6.56,2.71,6.67,6.28l4.4,146.87c.11,3.58-2.71,6.56-6.28,6.67Zm51.65-6.44c0,3.58-2.9,6.48-6.48,6.48s-6.48-2.9-6.48-6.48v-146.93c0-3.58,2.9-6.48,6.48-6.48s6.48,2.9,6.48,6.48v146.93Zm45.36.16c-.11,3.58-3.09,6.39-6.67,6.28-3.58-.11-6.39-3.09-6.28-6.67l4.4-146.87c.11-3.58,3.09-6.39,6.67-6.28,3.58.11,6.39,3.09,6.28,6.67l-4.4,146.87Z"/>
</svg>